P2
20 20
255
200 200 200 200 100 100 100 100 50 50 50 50 25 25 25 25 0 0 0 0
200 200 200 200 100 100 100 100 50 50 50 50 25 25 25 25 0 0 0 0
200 200 200 200 100 100 100 100 50 50 50 50 25 25 25 25 0 0 0 0
200 200 200 200 100 100 100 100 50 50 50 50 25 25 25 25 0 0 0 0
200 200 200 200 100 100 100 100 50 50 50 50 25 25 25 25 0 0 0 0
0 0 0 0 25 25 25 25 50 50 50 50 100 100 100 100 255 255 255 255
0 0 0 0 25 25 25 25 50 50 50 50 100 100 100 100 255 255 255 255
0 0 0 0 25 25 25 25 50 50 50 50 100 100 100 100 255 255 255 255
0 0 0 0 25 25 25 25 50 50 50 50 100 100 100 100 255 255 255 255
0 0 0 0 25 25 25 25 50 50 50 50 100 100 100 100 255 255 255 255
200 200 200 200 100 100 100 100 50 50 50 50 25 25 25 25 0 0 0 0
200 200 200 200 100 100 100 100 50 50 50 50 25 25 25 25 0 0 0 0
200 200 200 200 100 100 100 100 50 50 50 50 25 25 25 25 0 0 0 0
200 200 200 200 100 100 100 100 50 50 50 50 25 25 25 25 0 0 0 0
200 200 200 200 100 100 100 100 50 50 50 50 25 25 25 25 0 0 0 0
0 0 0 0 25 25 25 25 50 50 50 50 100 100 100 100 255 255 255 255
0 0 0 0 25 25 25 25 50 50 50 50 100 100 100 100 255 255 255 255
0 0 0 0 25 25 25 25 50 50 50 50 100 100 100 100 255 255 255 255
0 0 0 0 25 25 25 25 50 50 50 50 100 100 100 100 255 255 255 255
0 0 0 0 25 25 25 25 50 50 50 50 100 100 100 100 255 255 255 255
